<?xml version="1.0" standalone="no"?>
<!DOCTYPE svg PUBLIC "-//W3C//DTD SVG 20010904//EN"
 "http://www.w3.org/TR/2001/REC-SVG-20010904/DTD/svg10.dtd">
<svg version="1.0" xmlns="http://www.w3.org/2000/svg"
 width="521.000000pt" height="521.000000pt" viewBox="0 0 521.000000 521.000000"
 preserveAspectRatio="xMidYMid meet">
<metadata>
Created by potrace 1.14, written by Peter Selinger 2001-2017
</metadata>
<g transform="translate(0.000000,521.000000) scale(0.100000,-0.100000)"
fill="#000000" stroke="none">
<path d="M0 2605 l0 -2605 2605 0 2605 0 0 2605 0 2605 -2605 0 -2605 0 0
-2605z m1155 2441 c79 -165 199 -306 323 -377 66 -39 156 -71 160 -58 2 6 -37
52 -86 103 -50 52 -112 127 -138 167 -47 73 -114 217 -114 245 0 12 33 14 211
12 l210 -3 3 -115 c2 -93 8 -128 28 -181 36 -97 73 -155 143 -223 150 -149
351 -191 583 -123 73 21 82 22 82 7 0 -47 -149 -133 -294 -170 -160 -41 -407
-19 -582 50 -251 100 -472 299 -597 538 -42 79 -89 207 -79 216 3 3 27 6 54 6
l48 0 45 -94z m2083 85 c10 -6 10 -11 -3 -21 -60 -50 -174 -256 -218 -395 -54
-168 -70 -275 -73 -489 -1 -109 -6 -202 -11 -207 -17 -17 -42 2 -53 39 -18 61
-24 278 -11 407 15 143 31 225 66 324 29 87 31 118 8 143 -24 27 -58 22 -98
-13 -34 -30 -36 -31 -55 -14 -30 27 -34 68 -11 113 31 62 96 99 191 112 77 10
252 11 268 1z m451 2 c0 -5 -34 -34 -74 -65 -155 -120 -296 -350 -351 -570 -8
-35 -18 -132 -21 -218 -7 -191 8 -283 72 -465 l46 -130 -31 -28 c-17 -15 -37
-26 -43 -24 -39 12 -121 189 -152 327 -23 103 -31 339 -15 453 33 248 143 476
322 672 l50 55 99 0 c54 0 99 -3 98 -7z m-1269 -39 c59 -32 105 -87 120 -144
26 -96 -28 -200 -103 -200 -30 0 -67 20 -67 35 0 3 9 19 20 37 24 40 25 59 5
98 -31 60 -116 78 -176 37 -99 -66 -86 -195 27 -276 22 -17 53 -33 67 -36 67
-17 -9 -42 -95 -32 -119 15 -218 123 -218 240 0 97 58 205 131 242 84 44 208
43 289 -1z m2427 -80 c133 -34 226 -96 284 -186 33 -52 34 -55 37 -178 l3
-125 -22 35 c-149 232 -247 335 -425 445 l-59 37 62 -7 c34 -3 88 -13 120 -21z
m-709 -50 c4 -29 -23 -48 -108 -74 -41 -12 -108 -40 -147 -62 -76 -41 -115
-46 -121 -15 -12 60 213 178 328 174 37 -2 46 -6 48 -23z m284 -15 c21 -28 17
-48 -13 -67 -17 -11 -25 -11 -45 3 -30 19 -31 44 -3 74 24 26 36 24 61 -10z
m-3783 -254 c21 -41 53 -82 98 -125 240 -224 253 -244 253 -393 0 -139 -29
-232 -115 -367 -55 -88 -57 -90 -52 -90 2 0 45 33 95 73 94 76 212 148 285
175 26 10 74 16 127 16 75 1 93 -3 150 -30 36 -17 101 -58 145 -91 141 -107
258 -151 362 -138 32 4 53 3 53 -3 0 -5 -39 -46 -86 -91 -105 -99 -242 -182
-379 -230 -90 -31 -113 -35 -237 -39 -151 -5 -239 9 -357 56 l-65 26 -39 -45
c-59 -67 -103 -139 -128 -210 -33 -94 -32 -263 3 -371 38 -114 92 -204 173
-283 86 -84 156 -128 273 -168 83 -29 95 -31 247 -31 124 0 175 4 225 18 72
19 180 71 250 119 67 46 197 180 275 282 186 244 297 349 449 424 114 57 215
81 345 81 127 0 197 -16 307 -70 73 -35 214 -148 214 -170 0 -4 -33 -41 -74
-81 -123 -123 -227 -173 -397 -192 l-96 -11 -13 -45 c-8 -25 -16 -52 -18 -58
-5 -18 203 -17 288 1 121 26 254 101 352 199 57 57 55 59 92 -53 66 -200 59
-414 -21 -645 -98 -284 -290 -538 -530 -702 -79 -54 -198 -120 -257 -143 l-22
-8 22 67 c20 63 27 100 39 219 10 92 -23 342 -44 342 -5 0 -72 -42 -89 -56 -2
-1 -3 -63 -3 -138 3 -269 -59 -495 -184 -671 -124 -175 -316 -285 -496 -285
-27 0 -49 2 -49 5 0 3 15 36 34 73 46 92 72 183 95 333 29 191 50 228 152 274
33 14 66 36 74 48 20 31 47 141 43 177 l-3 30 -108 -62 c-136 -80 -171 -108
-211 -172 -42 -65 -62 -126 -77 -229 -7 -45 -16 -86 -21 -92 -14 -16 -177 -24
-288 -14 -373 34 -682 183 -968 467 -257 256 -409 559 -466 932 -28 176 -27
179 8 83 122 -332 354 -627 622 -790 170 -104 337 -153 524 -154 151 -2 262
22 385 81 135 65 148 86 35 54 -76 -21 -285 -29 -400 -16 -280 34 -508 148
-720 361 -189 191 -322 434 -382 703 -19 86 -23 131 -23 268 1 237 30 369 127
568 l50 102 -35 53 c-49 74 -72 122 -98 207 -21 64 -24 95 -24 215 1 125 4
150 29 230 44 142 108 258 190 343 l41 43 7 -63 c4 -36 20 -87 37 -123z m281
90 c20 -24 3 -57 -28 -53 -30 3 -41 30 -22 53 16 19 34 19 50 0z m3454 -20
c42 -7 96 -23 120 -34 49 -21 75 -54 54 -68 -7 -4 -92 -8 -188 -9 -199 -1
-239 -9 -336 -72 -164 -106 -244 -299 -200 -485 l16 -67 -42 -42 -41 -41 -19
23 c-10 12 -25 45 -33 74 -58 208 9 437 171 585 139 127 307 173 498 136z
m379 -97 c9 -7 34 -44 55 -83 79 -141 82 -147 71 -167 -13 -24 -41 -23 -56 1
-7 11 -40 30 -73 42 -44 16 -65 30 -79 53 -33 53 -31 107 4 141 27 28 53 32
78 13z m-1123 -50 c0 -19 -38 -78 -50 -78 -15 0 -12 27 5 60 15 30 45 41 45
18z m866 -89 c86 -43 171 -129 223 -226 23 -43 50 -89 61 -103 19 -23 20 -32
11 -94 -28 -196 -191 -374 -382 -416 -75 -17 -224 -9 -267 14 l-32 17 41 60
c31 46 45 59 57 54 40 -17 159 -17 213 -1 152 45 268 214 240 347 -13 61 -23
81 -68 137 -43 53 -56 54 -38 1 18 -49 19 -138 4 -194 -12 -43 -99 -137 -136
-147 -13 -4 -31 3 -49 18 l-29 23 42 43 c72 74 90 146 54 224 -28 61 -80 97
-150 102 -72 5 -104 -10 -189 -92 l-64 -61 -24 28 c-13 16 -24 40 -24 54 0 65
100 171 182 193 21 6 60 10 87 9 37 -2 55 3 76 19 39 31 86 28 161 -9z m-3216
-168 c0 -10 -11 -28 -24 -40 l-23 -22 -32 26 -31 27 26 34 26 34 29 -21 c16
-11 29 -28 29 -38z m2265 29 c4 -6 1 -57 -6 -113 -15 -126 -2 -247 36 -340 40
-94 40 -91 1 -121 l-36 -27 -30 63 c-16 35 -36 101 -46 147 -29 148 -8 363 39
393 17 11 35 10 42 -2z m-2007 -112 c-2 -12 -11 -26 -20 -32 -14 -8 -22 -6
-40 12 l-23 23 23 19 c29 24 65 11 60 -22z m3459 -58 c17 -33 16 -129 -2 -212
-44 -212 -177 -395 -350 -485 -150 -77 -335 -105 -426 -63 -33 15 -66 20 -135
20 -60 0 -96 5 -109 14 -18 13 -18 15 -1 41 17 26 19 27 79 18 99 -13 365 -10
427 6 106 27 180 69 263 152 62 62 85 93 118 163 43 92 69 203 69 295 0 58 13
84 40 79 8 -2 20 -14 27 -28z m-2379 -3 c4 -21 -25 -34 -40 -19 -8 8 -8 16 2
27 16 19 34 15 38 -8z m1592 -74 c-22 -37 -214 -307 -348 -489 -37 -50 -125
-171 -196 -268 -71 -97 -133 -179 -138 -182 -5 -3 -26 10 -48 30 -21 19 -58
47 -80 62 l-41 27 98 101 c282 289 754 756 764 756 6 0 2 -16 -11 -37z m-2100
-39 c0 -3 -7 -18 -15 -34 -26 -51 -97 -74 -158 -51 -26 10 -97 68 -97 80 0 3
61 7 135 8 74 1 135 0 135 -3z m301 -46 c24 -30 24 -36 -3 -59 -29 -23 -30
-23 -62 2 l-26 21 21 29 c25 35 44 37 70 7z m284 -274 c27 -46 85 -83 170
-110 43 -13 42 -14 -46 -38 -78 -22 -106 -47 -150 -139 -37 -77 -39 -79 -49
-53 -27 71 -64 137 -86 155 -14 11 -55 30 -91 42 l-65 21 70 30 c101 42 121
67 178 228 3 9 13 -6 24 -38 11 -30 31 -74 45 -98z m2475 -295 l0 -111 -86
-84 c-109 -107 -188 -163 -306 -218 -230 -107 -494 -132 -738 -70 -87 22 -260
95 -260 109 0 4 14 27 31 51 23 34 35 44 47 38 182 -76 284 -99 447 -98 196 1
338 39 499 133 97 56 257 206 317 296 24 36 44 65 46 65 2 0 3 -50 3 -111z
m-2082 29 c17 -17 15 -45 -4 -52 -18 -7 -44 10 -44 28 0 13 20 36 30 36 3 0
11 -5 18 -12z m-993 -183 c13 -36 26 -50 58 -67 38 -19 40 -22 23 -32 -45 -27
-69 -52 -83 -85 -17 -39 -18 -38 -55 29 -10 17 -33 37 -53 46 -34 14 -40 34
-11 34 25 0 62 39 76 79 7 23 16 41 20 41 4 0 15 -20 25 -45z m2255 -5 c16
-25 -18 -40 -89 -40 -103 0 -132 15 -98 49 18 19 174 11 187 -9z m809 -780
c-35 -226 -180 -516 -371 -745 -345 -413 -841 -692 -1365 -770 -168 -25 -197
-21 -218 28 -16 39 -3 80 31 96 14 6 69 16 122 22 374 41 759 203 1042 438 91
75 219 202 274 271 205 256 263 460 204 708 -20 86 -21 93 -5 109 15 15 20 14
67 -10 29 -15 58 -27 66 -27 28 0 64 47 64 83 0 47 -28 70 -83 69 -59 -2 -82
22 -74 75 7 41 57 95 187 201 l65 52 3 -262 c2 -167 -1 -290 -9 -338z m-4039
515 l24 -26 -27 -27 -27 -27 -27 27 -27 27 24 26 c13 14 26 25 30 25 4 0 17
-11 30 -25z m344 -11 c22 -21 20 -41 -5 -54 -37 -20 -67 28 -37 58 16 16 23
15 42 -4z m404 -130 l23 -16 -42 -39 -43 -39 -38 37 -39 38 22 18 c27 21 87
22 117 1z m2882 -52 c0 -57 -160 -108 -214 -69 -16 12 -9 16 65 37 46 12 93
29 104 36 28 18 45 17 45 -4z m-3170 -67 c26 -32 -18 -71 -48 -42 -14 15 -14
18 3 37 22 24 29 25 45 5z m-232 -77 c30 -30 -4 -77 -41 -57 -29 17 -15 69 18
69 6 0 16 -5 23 -12z m3043 -96 c25 -21 22 -45 -10 -61 -15 -8 -24 -7 -42 8
-22 18 -22 19 -6 45 21 31 28 32 58 8z m-270 -81 c11 -26 32 -49 60 -67 l44
-27 -43 -18 c-35 -15 -47 -28 -64 -66 l-21 -48 -11 30 c-20 55 -35 73 -71 85
-19 6 -35 16 -35 21 0 5 18 18 41 30 30 15 45 31 57 60 8 21 18 39 21 39 3 0
13 -18 22 -39z m573 -165 c48 -36 71 -100 57 -153 -6 -23 -18 -46 -26 -53 -13
-11 -15 -8 -15 16 0 91 -45 147 -114 142 -54 -4 -60 -34 -13 -63 90 -57 -1
-163 -94 -108 -37 22 -53 62 -46 119 12 113 159 171 251 100z m-908 -452 c35
-74 64 -198 64 -272 l0 -65 -107 6 c-102 4 -213 30 -213 48 0 4 24 43 54 86
50 72 89 147 131 248 16 39 17 39 32 20 8 -11 26 -43 39 -71z m439 56 l29 -30
-32 -33 -32 -32 -29 30 -28 30 26 32 c14 18 29 33 32 33 3 0 18 -14 34 -30z
m910 -228 c-22 -24 -110 -105 -195 -180 -237 -209 -352 -330 -510 -536 -80
-104 -178 -225 -219 -268 -201 -214 -463 -369 -776 -460 -274 -79 -634 -93
-990 -37 -198 30 -342 73 -480 142 -61 30 -198 118 -193 123 2 1 57 -17 123
-41 142 -51 381 -108 555 -131 151 -20 479 -23 625 -5 157 19 230 67 186 122
-18 23 -19 23 -133 11 -143 -15 -296 -15 -447 -1 -148 13 -181 23 -181 54 0
42 14 45 220 35 213 -10 454 0 610 25 116 19 145 26 285 72 170 55 255 103
255 145 0 27 -74 24 -221 -11 -152 -36 -337 -68 -444 -75 -44 -4 -109 -8 -145
-11 -78 -7 -114 8 -118 47 -5 44 28 58 133 58 222 0 592 69 830 155 197 71
441 202 600 323 231 176 426 377 605 622 l55 74 5 -104 6 -105 -41 -43z
m-4915 -142 c27 -36 71 -87 99 -115 56 -54 61 -65 31 -65 -35 0 -130 -41 -194
-84 l-64 -43 -4 101 c-3 56 -4 124 -3 151 1 28 3 100 4 160 l1 110 41 -75 c23
-41 63 -104 89 -140z m4949 -182 l0 -93 -91 -65 c-103 -74 -244 -208 -304
-290 -23 -30 -87 -131 -143 -223 -113 -188 -179 -280 -276 -385 -110 -118
-293 -243 -430 -291 -55 -20 -77 -21 -265 -19 -113 2 -198 6 -190 10 8 3 60
19 115 34 115 31 273 96 366 150 200 117 320 241 514 535 163 245 228 330 344
446 73 73 335 283 354 283 4 0 7 -42 6 -92z m-4493 -163 c34 -13 81 -36 105
-52 39 -26 41 -28 18 -31 -147 -15 -247 -60 -340 -152 -109 -107 -149 -211
-149 -387 0 -81 5 -118 25 -182 44 -140 155 -281 279 -355 l60 -36 -45 0 c-66
0 -160 26 -247 66 -94 45 -211 157 -259 249 -70 133 -93 324 -58 474 52 217
238 407 424 431 70 9 109 4 187 -25z m4494 -301 c0 -166 -2 -185 -16 -180 -62
24 -114 18 -157 -17 -17 -14 -46 -64 -77 -137 -60 -138 -100 -204 -163 -275
-100 -113 -227 -184 -397 -224 -45 -10 -78 -16 -73 -12 4 4 37 28 73 53 118
83 254 240 354 412 30 50 82 140 117 199 34 59 91 139 126 178 67 74 192 189
205 189 4 0 8 -84 8 -186z m-3964 -94 c50 -32 91 -92 104 -156 22 -107 -40
-214 -148 -254 -67 -25 -111 -22 -188 15 -86 42 -130 128 -101 197 25 60 90
60 103 0 10 -48 13 -52 39 -62 47 -18 75 -12 112 25 33 33 35 39 29 77 -13 79
-71 128 -153 128 -33 0 -35 2 -23 14 53 52 156 59 226 16z m-476 -242 c1 -81
10 -126 42 -216 47 -129 130 -237 253 -329 l30 -22 -45 5 c-208 26 -382 181
-430 382 -21 88 -5 128 64 162 15 8 38 27 50 42 11 15 24 27 29 27 4 1 7 -23
7 -51z m897 -190 c27 -26 28 -35 6 -60 -21 -23 -34 -23 -61 3 l-22 20 20 30
c25 35 27 35 57 7z m-328 -128 c150 -97 323 -166 524 -206 59 -11 85 -20 78
-27 -6 -6 -120 -12 -284 -15 l-274 -5 -56 26 c-111 50 -196 120 -276 224 l-32
42 113 4 c62 1 117 4 122 5 6 1 44 -20 85 -48z"/>
<path d="M2645 2821 c-31 -13 -55 -45 -61 -83 -17 -104 114 -166 181 -86 47
56 27 136 -41 164 -37 16 -50 16 -79 5z m98 -55 c8 -19 -15 -37 -32 -26 -17
10 -7 40 13 40 7 0 16 -6 19 -14z"/>
<path d="M622 1848 c-7 -7 -12 -17 -12 -24 0 -32 205 -224 240 -224 25 0 51
27 43 45 -9 24 -234 215 -253 215 -4 0 -11 -5 -18 -12z"/>
<path d="M1061 1534 c-26 -33 -26 -55 -3 -82 29 -35 67 -38 96 -8 15 14 26 34
26 44 0 33 -38 72 -70 72 -19 0 -36 -9 -49 -26z"/>
<path d="M1300 1440 c-20 -20 -26 -65 -12 -87 4 -6 19 -16 32 -21 77 -29 123
75 50 113 -38 20 -46 19 -70 -5z"/>
</g>
</svg>
